<svg width="64" height="52" viewBox="0 0 64 52" fill="none" xmlns="http://www.w3.org/2000/svg">
<path d="M49.2414 35.0515C49.2414 38.6151 47.035 42.1664 42.7941 44.9447C38.5749 47.7088 32.5987 49.5 25.8707 49.5C19.1428 49.5 13.1665 47.7088 8.94735 44.9447C4.70648 42.1664 2.5 38.6151 2.5 35.0515C2.5 31.4878 4.70648 27.9365 8.94735 25.1582C13.1665 22.3941 19.1428 20.6029 25.8707 20.6029C32.5987 20.6029 38.5749 22.3941 42.7941 25.1582C47.035 27.9365 49.2414 31.4878 49.2414 35.0515Z" stroke="black" stroke-width="5"/>
<path d="M14.4475 24.1756L4.10149 4.93541M33.4447 21.6474V1.95976M49.5493 34.2461L61.0198 15.0059" stroke="black" stroke-width="5"/>
<ellipse cx="25.8707" cy="35.0515" rx="10.7057" ry="11.1845" fill="#5D1676"/>
<ellipse cx="25.8707" cy="35.0515" rx="5.99433" ry="6.26241" fill="#8921AD"/>
<ellipse cx="25.8707" cy="35.0515" rx="2.77251" ry="2.8965" fill="#C02FF3"/>
</svg>
