<svg width="876" height="364" viewBox="0 0 876 364" fill="none" xmlns="http://www.w3.org/2000/svg">
<g id="found logo">
<rect id="rect" x="0.289917" y="0.100342" width="875.21" height="363.699" fill="#D9D9D9"/>
<path id="orangebtm" d="M177.066 151.9L106.061 204.404L177.066 254.907L249.071 204.404L177.066 151.9Z" fill="#D56339"/>
<g id="yellowmid">
<path d="M177.066 131.849L106.061 184.352L177.066 234.856L249.071 184.352L177.066 131.849Z" fill="#DAC84C" style="mix-blend-mode:hard-light"/>
</g>
<g id="bluetop">
<path d="M177.066 108.992L106.061 161.495L177.066 211.999L249.071 161.495L177.066 108.992Z" fill="#EA8C00" fill-opacity="0.76" style="mix-blend-mode:difference"/>
</g>
<path id="scenario" d="M317.296 212.866C312.928 212.866 309.011 212.138 305.544 210.682C302.078 209.156 299.339 207.076 297.328 204.442C295.318 201.738 294.208 198.652 294 195.186H303.776C304.054 198.028 305.371 200.351 307.728 202.154C310.155 203.956 313.31 204.858 317.192 204.858C320.798 204.858 323.64 204.06 325.72 202.466C327.8 200.871 328.84 198.86 328.84 196.434C328.84 193.938 327.731 192.1 325.512 190.922C323.294 189.674 319.862 188.46 315.216 187.282C310.987 186.172 307.52 185.063 304.816 183.954C302.182 182.775 299.894 181.076 297.952 178.858C296.08 176.57 295.144 173.588 295.144 169.914C295.144 167.002 296.011 164.332 297.744 161.906C299.478 159.479 301.939 157.572 305.128 156.186C308.318 154.73 311.958 154.002 316.048 154.002C322.358 154.002 327.454 155.596 331.336 158.786C335.219 161.975 337.299 166.343 337.576 171.89H328.112C327.904 168.908 326.691 166.516 324.472 164.714C322.323 162.911 319.411 162.01 315.736 162.01C312.339 162.01 309.635 162.738 307.624 164.194C305.614 165.65 304.608 167.556 304.608 169.914C304.608 171.786 305.198 173.346 306.376 174.594C307.624 175.772 309.15 176.743 310.952 177.506C312.824 178.199 315.39 178.996 318.648 179.898C322.739 181.007 326.067 182.116 328.632 183.226C331.198 184.266 333.382 185.86 335.184 188.01C337.056 190.159 338.027 192.967 338.096 196.434C338.096 199.554 337.23 202.362 335.496 204.858C333.763 207.354 331.302 209.33 328.112 210.786C324.992 212.172 321.387 212.866 317.296 212.866ZM345.32 183.33C345.32 177.436 346.499 172.306 348.856 167.938C351.214 163.5 354.472 160.068 358.632 157.642C362.862 155.215 367.68 154.002 373.088 154.002C380.091 154.002 385.846 155.7 390.352 159.098C394.928 162.495 397.944 167.21 399.4 173.242H389.208C388.238 169.775 386.331 167.036 383.488 165.026C380.715 163.015 377.248 162.01 373.088 162.01C367.68 162.01 363.312 163.882 359.984 167.626C356.656 171.3 354.992 176.535 354.992 183.33C354.992 190.194 356.656 195.498 359.984 199.242C363.312 202.986 367.68 204.858 373.088 204.858C377.248 204.858 380.715 203.887 383.488 201.946C386.262 200.004 388.168 197.231 389.208 193.626H399.4C397.875 199.45 394.824 204.13 390.248 207.666C385.672 211.132 379.952 212.866 373.088 212.866C367.68 212.866 362.862 211.652 358.632 209.226C354.472 206.799 351.214 203.367 348.856 198.93C346.499 194.492 345.32 189.292 345.32 183.33ZM461.428 181.25C461.428 183.052 461.324 184.959 461.116 186.97H415.564C415.911 192.586 417.818 196.988 421.284 200.178C424.82 203.298 429.084 204.858 434.076 204.858C438.167 204.858 441.564 203.922 444.268 202.05C447.042 200.108 448.983 197.543 450.092 194.354H460.284C458.759 199.831 455.708 204.303 451.132 207.77C446.556 211.167 440.871 212.866 434.076 212.866C428.668 212.866 423.815 211.652 419.516 209.226C415.287 206.799 411.959 203.367 409.532 198.93C407.106 194.423 405.892 189.223 405.892 183.33C405.892 177.436 407.071 172.271 409.428 167.834C411.786 163.396 415.079 159.999 419.308 157.642C423.607 155.215 428.53 154.002 434.076 154.002C439.484 154.002 444.268 155.18 448.428 157.538C452.588 159.895 455.778 163.154 457.996 167.314C460.284 171.404 461.428 176.05 461.428 181.25ZM451.652 179.274C451.652 175.668 450.855 172.583 449.26 170.018C447.666 167.383 445.482 165.407 442.708 164.09C440.004 162.703 436.988 162.01 433.66 162.01C428.876 162.01 424.786 163.535 421.388 166.586C418.06 169.636 416.154 173.866 415.668 179.274H451.652ZM499.088 153.898C506.022 153.898 511.638 156.012 515.936 160.242C520.235 164.402 522.384 170.434 522.384 178.338V211.93H513.024V179.69C513.024 174.004 511.603 169.671 508.76 166.69C505.918 163.639 502.035 162.114 497.112 162.114C492.12 162.114 488.134 163.674 485.152 166.794C482.24 169.914 480.784 174.455 480.784 180.418V211.93H471.32V154.938H480.784V163.05C482.656 160.138 485.187 157.884 488.376 156.29C491.635 154.695 495.206 153.898 499.088 153.898ZM531.708 183.226C531.708 177.402 532.886 172.306 535.244 167.938C537.601 163.5 540.825 160.068 544.916 157.642C549.076 155.215 553.686 154.002 558.748 154.002C563.74 154.002 568.073 155.076 571.748 157.226C575.422 159.375 578.161 162.079 579.964 165.338V154.938H589.532V211.93H579.964V201.322C578.092 204.65 575.284 207.423 571.54 209.642C567.865 211.791 563.566 212.866 558.644 212.866C553.582 212.866 549.006 211.618 544.916 209.122C540.825 206.626 537.601 203.124 535.244 198.618C532.886 194.111 531.708 188.98 531.708 183.226ZM579.964 183.33C579.964 179.031 579.097 175.287 577.364 172.098C575.63 168.908 573.273 166.482 570.292 164.818C567.38 163.084 564.156 162.218 560.62 162.218C557.084 162.218 553.86 163.05 550.948 164.714C548.036 166.378 545.713 168.804 543.98 171.994C542.246 175.183 541.38 178.927 541.38 183.226C541.38 187.594 542.246 191.407 543.98 194.666C545.713 197.855 548.036 200.316 550.948 202.05C553.86 203.714 557.084 204.546 560.62 204.546C564.156 204.546 567.38 203.714 570.292 202.05C573.273 200.316 575.63 197.855 577.364 194.666C579.097 191.407 579.964 187.628 579.964 183.33ZM612.389 164.194C614.053 160.935 616.41 158.404 619.461 156.602C622.581 154.799 626.36 153.898 630.797 153.898V163.674H628.301C617.693 163.674 612.389 169.428 612.389 180.938V211.93H602.925V154.938H612.389V164.194ZM644.01 145.682C642.207 145.682 640.682 145.058 639.434 143.81C638.186 142.562 637.562 141.036 637.562 139.234C637.562 137.431 638.186 135.906 639.434 134.658C640.682 133.41 642.207 132.786 644.01 132.786C645.743 132.786 647.199 133.41 648.378 134.658C649.626 135.906 650.25 137.431 650.25 139.234C650.25 141.036 649.626 142.562 648.378 143.81C647.199 145.058 645.743 145.682 644.01 145.682ZM648.586 154.938V211.93H639.122V154.938H648.586ZM686.972 212.866C681.633 212.866 676.78 211.652 672.412 209.226C668.113 206.799 664.716 203.367 662.22 198.93C659.793 194.423 658.58 189.223 658.58 183.33C658.58 177.506 659.828 172.375 662.324 167.938C664.889 163.431 668.356 159.999 672.724 157.642C677.092 155.215 681.98 154.002 687.388 154.002C692.796 154.002 697.684 155.215 702.052 157.642C706.42 159.999 709.852 163.396 712.348 167.834C714.913 172.271 716.196 177.436 716.196 183.33C716.196 189.223 714.878 194.423 712.244 198.93C709.678 203.367 706.177 206.799 701.74 209.226C697.302 211.652 692.38 212.866 686.972 212.866ZM686.972 204.546C690.369 204.546 693.558 203.748 696.54 202.154C699.521 200.559 701.913 198.167 703.716 194.978C705.588 191.788 706.524 187.906 706.524 183.33C706.524 178.754 705.622 174.871 703.82 171.682C702.017 168.492 699.66 166.135 696.748 164.61C693.836 163.015 690.681 162.218 687.284 162.218C683.817 162.218 680.628 163.015 677.716 164.61C674.873 166.135 672.585 168.492 670.852 171.682C669.118 174.871 668.252 178.754 668.252 183.33C668.252 187.975 669.084 191.892 670.748 195.082C672.481 198.271 674.769 200.663 677.612 202.258C680.454 203.783 683.574 204.546 686.972 204.546Z" fill="#2C344C"/>
</g>
</svg>
